#!OML:ASF F:\VICON\USERDATA\INSTALL\rory3\rory3.ASF
:FULLY-SPECIFIED
:DEGREES
287
root 0.908987 23.7278 -1.30094 9.05157 -4.51038 0.978319
lowerback 17.5689 0.439548 -4.25224
upperback 1.7713 0.111057 4.18719
thorax -7.96973 0.268227 6.97004
lowerneck -6.46585 -1.2421 -11.3677
upperneck 34.9707 0.190058 0.56444
head 12.7962 -1.31251 2.239
rclavicle -3.97569e-015 -2.3059e-014
rhumerus -35.6451 9.44935 -76.9336
rradius 46.8278
rwrist 1.55018
rhand -14.1978 9.30861
rfingers 7.12502
rthumb 11.9384 -20.331
lclavicle -3.97569e-015 -2.3059e-014
lhumerus -52.9358 2.86147 65.1633
lradius 44.2031
lwrist -1.33233
lhand -20.7169 22.4874
lfingers 7.12502
lthumb 5.64767 52.3921
rfemur -37.3602 -5.509 23.861
rtibia 34.9853
rfoot 16.6505 -1.69043
rtoes 4.77686
lfemur -32.1677 -2.24669 -17.5997
ltibia 27.1868
lfoot 18.0456 0.704374
ltoes -7.31413
288
root 0.910232 23.4969 -1.10075 8.99662 -4.67063 1.20985
lowerback 17.6154 0.577113 -4.42018
upperback 1.72611 0.251566 4.09506
thorax -8.06646 0.34487 6.93413
lowerneck -3.24059 -1.68425 -13.9776
upperneck 31.9645 -1.33966 3.06962
head 11.0497 -1.90056 3.42318
rclavicle 3.97569e-016 3.02153e-014
rhumerus -37.2223 10.2388 -77.4083
rradius 48.738
rwrist 0.509032
rhand -15.2449 9.82162
rfingers 7.12502
rthumb 10.9285 -19.874
lclavicle 3.97569e-016 3.02153e-014
lhumerus -54.5398 2.08562 65.1325
lradius 45.8032
lwrist -0.388103
lhand -21.0566 22.4589
lfingers 7.12502
lthumb 5.31972 52.3721
rfemur -37.6972 -5.21993 23.369
rtibia 34.4563
rfoot 16.6448 -1.96495
rtoes 5.52191
lfemur -32.1081 -2.90875 -17.4043
ltibia 25.8511
lfoot 18.762 1.33914
ltoes -5.99523
289
root 0.911104 23.2587 -0.890907 8.86475 -4.59821 1.33975
lowerback 17.5284 0.614005 -4.39511
upperback 1.81727 0.301424 4.03412
thorax -7.92572 0.359391 6.83504
lowerneck -2.774 -1.64634 -13.9505
upperneck 31.3717 -1.40116 3.18075
head 10.7294 -1.88937 3.44266
rclavicle -4.37326e-015 -3.18055e-014
rhumerus -38.4895 10.9621 -77.8961
rradius 50.4994
rwrist -0.293355
rhand -15.4524 9.62005
rfingers 7.12502
rthumb 10.7284 -20.086
lclavicle -4.37326e-015 -3.18055e-014
lhumerus -55.8159 1.40623 65.0365
lradius 47.1321
lwrist -0.101156
lhand -22.0834 20.7782
lfingers 7.12502
lthumb 4.3282 50.714
rfemur -37.7372 -5.09413 22.9576
rtibia 33.7537
rfoot 16.7407 -1.83192
rtoes 5.02519
lfemur -31.9646 -3.5839 -17.142
ltibia 24.5556
lfoot 19.4001 1.79043
ltoes -5.26332
290
root 0.91086 23.0109 -0.673319 8.75286 -4.42219 1.37329
lowerback 17.3009 0.630506 -4.1171
upperback 1.87365 0.373609 3.93364
thorax -7.74711 0.375651 6.53718
lowerneck -2.28128 -1.67697 -13.9177
upperneck 30.8206 -1.58825 3.39287
head 10.4361 -1.92737 3.48756
rclavicle 8.34896e-015 1.59028e-015
rhumerus -39.7442 11.2544 -78.3532
rradius 52.2701
rwrist -0.226472
rhand -15.8297 9.82534
rfingers 7.12502
rthumb 10.3644 -19.8992
lclavicle 8.34896e-015 1.59028e-015
lhumerus -56.952 0.598777 64.879
lradius 48.4235
lwrist -0.248183
lhand -22.7045 20.4565
lfingers 7.12502
lthumb 3.7285 50.4036
rfemur -37.6907 -4.89781 22.5798
rtibia 32.9069
rfoot 16.9651 -1.80935
rtoes 5.06807
lfemur -31.7912 -4.21145 -16.8222
ltibia 23.3178
lfoot 19.8162 1.98732
ltoes -6.35162
291
root 0.912442 22.7526 -0.453233 8.55101 -4.29207 1.35369
lowerback 17.0469 0.651716 -3.82264
upperback 1.92791 0.458363 3.88266
thorax -7.5576 0.398986 6.28267
lowerneck -1.87754 -1.70978 -13.9756
upperneck 30.4538 -1.737 3.56194
head 10.2337 -1.97095 3.53938
rclavicle 2.62396e-014 -1.59028e-015
rhumerus -41.1767 11.7157 -78.8678
rradius 53.7739
rwrist -1.31778
rhand -17.2325 11.7239
rfingers 7.12502
rthumb 9.01101 -18.0636
lclavicle 2.62396e-014 -1.59028e-015
lhumerus -58.1085 -0.235492 64.7896
lradius 49.7158
lwrist -0.431907
lhand -22.9076 20.9532
lfingers 7.12502
lthumb 3.53234 50.9036
rfemur -37.4416 -4.59501 22.2005
rtibia 31.9411
rfoot 17.3264 -1.71189
rtoes 4.97994
lfemur -31.4508 -4.83044 -16.4627
ltibia 22.1094
lfoot 20.1249 2.44679
ltoes -8.32092
292
root 0.912825 22.4784 -0.235438 8.24231 -4.31118 1.43175
lowerback 16.7969 0.712455 -3.78229
upperback 2.10625 0.545344 3.83559
thorax -7.23749 0.424965 6.179
lowerneck -2.36278 -1.84514 -13.7566
upperneck 30.774 -1.82186 3.37601
head 10.4533 -2.01322 3.43116
rclavicle -1.59028e-015 1.43125e-014
rhumerus -42.1631 11.9901 -79.1164
rradius 55.3373
rwrist -0.559759
rhand -17.0286 10.6784
rfingers 7.12502
rthumb 9.20772 -19.1006
lclavicle -1.59028e-015 1.43125e-014
lhumerus -59.1319 -0.856523 64.5891
lradius 50.875
lwrist -0.903438
lhand -22.9085 20.5691
lfingers 7.12502
lthumb 3.53148 50.5196
rfemur -37.0182 -4.17955 21.6793
rtibia 30.9388
rfoot 17.7809 -1.7101
rtoes 4.90341
lfemur -30.9952 -5.41913 -16.22
ltibia 20.9688
lfoot 21.3706 3.05487
ltoes -6.22076
293
root 0.909577 22.1961 -0.0137609 7.85759 -4.26528 1.67125
lowerback 16.5473 0.791921 -3.84189
upperback 2.28459 0.634274 3.72212
thorax -6.91851 0.454318 6.06164
lowerneck -3.19452 -2.02001 -13.4797
upperneck 31.4593 -1.92719 3.23349
head 10.8839 -2.0655 3.33159
rclavicle 1.43125e-014 7.95139e-015
rhumerus -42.9449 12.1323 -79.4325
rradius 56.3943
rwrist -0.0290281
rhand -17.2421 10.1932
rfingers 7.12502
rthumb 9.0017 -19.5947
lclavicle 1.43125e-014 7.95139e-015
lhumerus -60.1552 -1.73819 64.4688
lradius 52.1398
lwrist -1.50743
lhand -22.7332 20.6102
lfingers 7.12502
lthumb 3.70079 50.5578
rfemur -36.4716 -3.65686 20.9032
rtibia 29.9551
rfoot 18.5326 -2.22165
rtoes 5.80616
lfemur -30.4544 -5.96642 -16.2095
ltibia 19.9045
lfoot 22.0564 3.87892
ltoes -5.70367
294
root 0.905092 21.8976 0.214255 7.5165 -4.02526 1.97702
lowerback 16.3266 0.810411 -3.84282
upperback 2.29104 0.652988 3.57143
thorax -6.79094 0.457707 5.8897
lowerneck -3.29886 -2.12376 -13.623
upperneck 31.8323 -2.11632 3.52779
head 11.0721 -2.14878 3.454
rclavicle 8.34896e-015 2.22639e-014
rhumerus -44.0054 12.2018 -79.8653
rradius 57.276
rwrist 0.065966
rhand -18.5275 11.7111
rfingers 7.12502
rthumb 7.76119 -18.1264
lclavicle 8.34896e-015 2.22639e-014
lhumerus -61.3847 -2.92217 64.462
lradius 53.2877
lwrist -2.17884
lhand -22.8196 20.4531
lfingers 7.12502
lthumb 3.61735 50.4021
rfemur -35.9347 -3.2586 20.0774
rtibia 29.0566
rfoot 19.4579 -3.0591
rtoes 6.94445
lfemur -29.9402 -6.3858 -16.3977
ltibia 18.8754
lfoot 22.575 4.47377
ltoes -6.761
295
root 0.896988 21.5845 0.439201 7.15929 -3.88675 2.1778
lowerback 16.1336 0.878463 -3.8422
upperback 2.33533 0.739912 3.46721
thorax -6.64714 0.493648 5.75333
lowerneck -3.13315 -2.20083 -13.8598
upperneck 31.9239 -2.32114 3.89914
head 11.1018 -2.23246 3.61585
rclavicle 1.15295e-014 2.70347e-014
rhumerus -45.1059 11.7712 -79.9665
rradius 58.4975
rwrist 1.56467
rhand -18.4616 11.917
rfingers 7.12502
rthumb 7.82481 -17.9182
lclavicle 1.15295e-014 2.70347e-014
lhumerus -62.5192 -4.0428 64.4758
lradius 54.4516
lwrist -2.38904
lhand -23.2149 20.074
lfingers 7.12502
lthumb 3.23559 50.0292
rfemur -35.356 -2.60226 19.3454
rtibia 28.2096
rfoot 20.5058 -3.92431
rtoes 7.13356
lfemur -29.4329 -6.29856 -16.6541
ltibia 17.9567
lfoot 23.3047 4.6268
ltoes -8.20695
296
root 0.888405 21.2687 0.665753 6.78598 -3.82896 2.36356
lowerback 15.6148 0.956636 -3.88838
upperback 2.59184 0.839849 3.37407
thorax -6.09907 0.521207 5.64916
lowerneck -3.40251 -2.34985 -13.8147
upperneck 32.0408 -2.5172 3.98218
head 11.2207 -2.30804 3.62063
rclavicle -2.38542e-015 -7.95139e-015
rhumerus -45.8218 11.2422 -79.9503
rradius 59.7148
rwrist 3.19743
rhand -17.5583 10.3194
rfingers 7.12502
rthumb 8.69657 -19.4815
lclavicle -2.38542e-015 -7.95139e-015
lhumerus -63.2709 -4.91753 64.3426
lradius 55.7035
lwrist -2.01159
lhand -22.9377 19.9679
lfingers 7.12502
lthumb 3.50329 49.9189
rfemur -34.7049 -1.81569 18.619
rtibia 27.4363
rfoot 21.7171 -4.51299
rtoes 7.24441
lfemur -28.9311 -6.09794 -16.9373
ltibia 17.3058
lfoot 23.8547 5.18418
ltoes -7.65293
